<svg xmlns="http://www.w3.org/2000/svg" viewBox="0 0 1917.81 2145.68"><defs><style>.cls-1{fill:#475446;}.cls-2{fill:#2d3331;}.cls-3{fill:#949b70;}.cls-4{fill:#09609d;}.cls-5{fill:#607661;}</style></defs><polygon class="cls-1" points="0 898.4 274.08 751.81 960.79 1174.09 680 1313.99 0 898.4"/><polygon class="cls-2" points="561.48 427.7 944 191.86 1522.1 547.99 1153.65 764.4 561.48 427.7"/><polygon class="cls-2" points="170.8 1835.52 300.11 1770.13 300.11 1307.44 173.2 1231.1 170.8 1835.52"/><polygon class="cls-2" points="425.34 1989.75 554.65 1924.36 554.65 1461.67 426 1385.6 425.34 1989.75"/><polygon class="cls-2" points="1746.84 1835.52 1617.53 1770.13 1617.53 1307.44 1742.45 1231.1 1746.84 1835.52"/><polygon class="cls-2" points="1492.31 1989.75 1362.99 1924.36 1362.99 1461.67 1489.91 1385.33 1492.31 1989.75"/><polygon class="cls-2" points="266.55 417.44 274.08 751.81 957.82 1175.52 953.81 838.99 266.55 417.44"/><polygon class="cls-2" points="1236.76 2145.66 952.35 2006.84 957.82 1175.52 1241.12 1317.9 1236.76 2145.66"/><path class="cls-3" d="M1711.18,2046.76a6.31,6.31,0,0,1,2.4,5V2881q0,3.5-2.4,2l-168.4-102.92c-1.6-1-2.4-2.63-2.4-5V2172.71l-80.8-49.38v602.39c0,2.33-.94,2.92-2.8,1.78l-168-102.67c-1.6-1-2.4-2.63-2.4-5V2017.48l-79.6-48.65v602.39q0,3.5-2.4,2l-168-102.68a5.68,5.68,0,0,1-2.8-5.21V1636.13c.26-2.17,1.2-2.76,2.8-1.78Z" transform="translate(-1033.58 -737.73)"/><polygon class="cls-3" points="614.62 415.7 953.87 208.28 1474.86 519.51 1641.32 417.44 953.81 0 266.55 417.44 953.81 838.99 1395.84 567.96 953.94 307.32 779.98 414.01 1038.83 570.67 953.87 622.41 614.62 415.7"/><path class="cls-3" d="M2946.42,1634.35c1.6-1,2.54-.39,2.8,1.78v829.23a5.68,5.68,0,0,1-2.8,5.21l-168,102.68q-2.4,1.47-2.4-2V1968.83l-79.6,48.65v602.38c0,2.34-.8,4-2.4,5L2526,2727.5c-1.86,1.14-2.8.55-2.8-1.78V2123.33l-80.8,49.38V2775.1c0,2.33-.8,4-2.4,5L2271.62,2883q-2.4,1.47-2.4-2V2051.72a6.31,6.31,0,0,1,2.4-5Z" transform="translate(-1033.58 -737.73)"/><path class="cls-4" d="M2508.44,1290.68" transform="translate(-1033.58 -737.73)"/><polygon class="cls-1" points="1917.81 893.11 1645.46 754.37 957.82 1175.52 1230.17 1314.25 1917.81 893.11"/><polyline class="cls-5" points="953.81 838.99 1641.32 417.44 1645.87 754.37 957.82 1175.52"/><polygon class="cls-5" points="677.6 2145.25 952.35 2006.84 957.82 1175.52 680 1313.99 677.6 2145.25"/></svg>
